# xmcd
#
# Track frame offsets:
#	150
#	20629
#	35240
#	50488
#	66885
#	84624
#	98146
#	117011
#	134341
#	150921
#	171903
#	190040
#	208170
#	225903
#	243780
#	263175
#	281466
#	299078
#	315988
#
# Disc length: 4522 seconds
#
# Revision: 1
# Processed by: cddbd v1.5.1PL2 Copyright (c) Steve Scherf et al.
# Submitted via: audiograbber 1.83.01
#
DISCID=0911a813
DTITLE=Various Artist - BLACK SUMMER 2006 - CD 1
DYEAR=2006
DGENRE=Black
TTITLE0=The Pussicat Dolls - Don't Cha
TTITLE1=Chris Brown - Run It
TTITLE2=Bow Wow feat. Ciara - Like You
TTITLE3=Sean Paul - Temperature
TTITLE4=Amerie - I Thing
TTITLE5=Gnarls Barkley - Crazy
TTITLE6=Faith Evans - Mesmerized
TTITLE7=Jaheim - The Chosen One
TTITLE8=Jagged Edge Feat. Voltio - So Amazing
TTITLE9=Paul Wall - Girl
TTITLE10=Trey Songz Feat. Twista - Gotta Make It
TTITLE11=Keyshia Cole - (I Just Want It) To Be Over
TTITLE12=Ryan Leslie Feat. Fabolous - Used To Be
TTITLE13=Pretty Ricky - Grind With Me
TTITLE14=Bobby Valentino - Slow Down
TTITLE15=Ghostface Killah Feat. Ne-Yo - Back Like That
TTITLE16=Ginuwine - When We Make Love
TTITLE17=Lyfe Jennings - Must Be Nice
TTITLE18=John Legend - So High
EXTD=
EXTT0=
EXTT1=
EXTT2=
EXTT3=
EXTT4=
EXTT5=
EXTT6=
EXTT7=
EXTT8=
EXTT9=
EXTT10=
EXTT11=
EXTT12=
EXTT13=
EXTT14=
EXTT15=
EXTT16=
EXTT17=
EXTT18=
PLAYORDER=
